0
SECTION
2
HEADER
9
$INSUNITS
70
4
9
$ACADVER
1
AC1014
9
$HANDSEED
5
FFFF
0
ENDSEC
0
SECTION
2
TABLES
0
TABLE
2
VPORT
5
8
100
AcDbSymbolTable
0
ENDTAB
0
TABLE
2
LTYPE
5
5
100
AcDbSymbolTable
0
LTYPE
5
14
100
AcDbSymbolTableRecord
100
AcDbLinetypeTableRecord
2
BYBLOCK
70
0
0
LTYPE
5
15
100
AcDbSymbolTableRecord
100
AcDbLinetypeTableRecord
2
BYLAYER
70
0
0
ENDTAB
0
TABLE
2
LAYER
5
2
100
AcDbSymbolTable
70
2
0
LAYER
5
50
100
AcDbSymbolTableRecord
100
AcDbLayerTableRecord
2
0
70
0
6
CONTINUOUS
0
ENDTAB
0
TABLE
2
STYLE
5
3
100
AcDbSymbolTable
70
1
0
STYLE
5
11
100
AcDbSymbolTableRecord
100
AcDbTextStyleTableRecord
2
STANDARD
70
0
0
ENDTAB
0
TABLE
2
VIEW
5
6
100
AcDbSymbolTable
70
0
0
ENDTAB
0
TABLE
2
UCS
5
7
100
AcDbSymbolTable
70
0
0
ENDTAB
0
TABLE
2
APPID
5
9
100
AcDbSymbolTable
70
2
0
APPID
5
12
100
AcDbSymbolTableRecord
100
AcDbRegAppTableRecord
2
ACAD
70
0
0
ENDTAB
0
TABLE
2
DIMSTYLE
5
A
100
AcDbSymbolTable
70
1
0
ENDTAB
0
TABLE
2
BLOCK_RECORD
5
1
100
AcDbSymbolTable
70
1
0
BLOCK_RECORD
5
1F
100
AcDbSymbolTableRecord
100
AcDbBlockTableRecord
2
*MODEL_SPACE
0
BLOCK_RECORD
5
1B
100
AcDbSymbolTableRecord
100
AcDbBlockTableRecord
2
*PAPER_SPACE
0
ENDTAB
0
ENDSEC
0
SECTION
2
BLOCKS
0
BLOCK
5
20
100
AcDbEntity
100
AcDbBlockBegin
2
*MODEL_SPACE
0
ENDBLK
5
21
100
AcDbEntity
100
AcDbBlockEnd
0
BLOCK
5
1C
100
AcDbEntity
100
AcDbBlockBegin
2
*PAPER_SPACE
0
ENDBLK
5
1D
100
AcDbEntity
100
AcDbBlockEnd
0
ENDSEC
0
SECTION
2
ENTITIES
0
CIRCLE
5
100
100
AcDbEntity
8
0
100
AcDbCircle
10
-7.6439948416064585
20
-8.7600328640477798
30
0
40
0.87500000000000355
210
0
220
0
230
1
0
CIRCLE
5
101
100
AcDbEntity
8
0
100
AcDbCircle
10
7.5760051583935262
20
16.639967135952176
30
0
40
0.87500000000000355
210
0
220
0
230
1
0
CIRCLE
5
102
100
AcDbEntity
8
0
100
AcDbCircle
10
-7.6439948416064585
20
6.4799671359521582
30
0
40
0.87500000000000355
210
0
220
0
230
1
0
CIRCLE
5
103
100
AcDbEntity
8
0
100
AcDbCircle
10
7.5760051583935262
20
-3.6800328640478241
30
0
40
0.87500000000000355
210
0
220
0
230
1
0
CIRCLE
5
104
100
AcDbEntity
8
0
100
AcDbCircle
10
-7.6439948416064585
20
-3.6800328640478241
30
0
40
0.87500000000000355
210
0
220
0
230
1
0
CIRCLE
5
105
100
AcDbEntity
8
0
100
AcDbCircle
10
-7.6439948416064585
20
9.0199671359521716
30
0
40
0.87500000000000355
210
0
220
0
230
1
0
CIRCLE
5
106
100
AcDbEntity
8
0
100
AcDbCircle
10
-7.6439948416064585
20
16.639967135952176
30
0
40
0.87500000000000355
210
0
220
0
230
1
0
CIRCLE
5
107
100
AcDbEntity
8
0
100
AcDbCircle
10
-91.213714456697204
20
11.210309067660909
30
0
40
0.99999999999999645
210
0
220
0
230
1
0
CIRCLE
5
108
100
AcDbEntity
8
0
100
AcDbCircle
10
-78.38854369711116
20
61.089588566289578
30
0
40
1.0000000000000009
210
0
220
0
230
1
0
CIRCLE
5
109
100
AcDbEntity
8
0
100
AcDbCircle
10
7.5760051583935262
20
-8.7600328640477798
30
0
40
0.87500000000000355
210
0
220
0
230
1
0
CIRCLE
5
110
100
AcDbEntity
8
0
100
AcDbCircle
10
-7.6439948416064585
20
11.559967135952185
30
0
40
0.87500000000000355
210
0
220
0
230
1
0
CIRCLE
5
111
100
AcDbEntity
8
0
100
AcDbCircle
10
7.5760051583935262
20
14.099967135952163
30
0
40
0.87500000000000355
210
0
220
0
230
1
0
CIRCLE
5
112
100
AcDbEntity
8
0
100
AcDbCircle
10
-7.6439948416064585
20
-11.300032864047829
30
0
40
0.87500000000000355
210
0
220
0
230
1
0
LWPOLYLINE
5
113
100
AcDbEntity
8
0
100
AcDbPolyline
90
8
70
1
43
0.0
10
-63.696008385333556
20
29.82379231744904
42
0.41421305117806656
10
-64.336865229063704
20
29.524955182577663
10
-68.780048911007441
20
17.317408345947907
42
0.41421356237308177
10
-68.481211732584669
20
16.676551621871987
10
-56.268285365639599
20
12.221831286889929
42
0.41421305117802343
10
-55.627429461602105
20
12.520668763781408
10
-51.181166316657574
20
24.736673431668272
42
0.41421297658963963
10
-51.480003837098536
20
25.377529216053851
0
LWPOLYLINE
5
114
100
AcDbEntity
8
0
100
AcDbPolyline
90
8
70
1
43
0.0
10
-44.093277396644631
20
-4.9244292862788797
42
0.41421305117808965
10
-44.789642314846247
20
-5.0472178363637088
10
-52.24097379948266
20
-15.688822043721766
42
0.41421356237312018
10
-52.118185176361649
20
-16.385186857618272
10
-41.474370647261516
20
-23.849054218272702
42
0.41421246539484957
10
-40.778006302635575
20
-23.726266487337043
10
-33.321511482922375
20
-13.077288273280738
42
0.41421297658954853
10
-33.444300679617356
20
-12.380924278534664
0
LWPOLYLINE
5
115
100
AcDbEntity
8
0
100
AcDbPolyline
90
8
70
1
43
0.0
10
-88.756791677912872
20
17.960648923714366
10
-84.313608935661733
20
30.16819610236411
42
-0.41421305117812302
10
-83.672752091931585
20
30.467033237235448
10
-71.456747201676464
20
26.020771075532988
42
-0.41421297658963402
10
-71.157910023255695
20
25.379914351454747
10
-75.604172570527652
20
13.163908401858231
42
-0.41421246539487389
10
-76.245029072237685
20
12.865072206676409
10
-88.457955439182783
20
17.319792541658408
42
-0.41421356237314882
0
LWPOLYLINE
5
116
100
AcDbEntity
8
0
100
AcDbPolyline
90
8
70
1
43
0.0
10
-23.934390821449554
20
28.021847617017137
42
0.41421305117813417
10
-24.575247665179745
20
27.723010482145803
10
-29.018397145109137
20
15.515557614778167
42
0.41421356237309964
10
-28.719559966686361
20
14.87470089070225
10
-16.506667801755668
20
10.419886586458098
42
0.41421305117812945
10
-15.865811897718105
20
10.718724063349576
10
-11.419548752773609
20
22.93472873123644
42
0.41421246539482132
10
-11.718385111156554
20
23.575585156844543
0
CIRCLE
5
117
100
AcDbEntity
8
0
100
AcDbCircle
10
7.5760051583935262
20
9.0199671359521716
30
0
40
0.87500000000000355
210
0
220
0
230
1
0
LWPOLYLINE
5
118
100
AcDbEntity
8
0
100
AcDbPolyline
90
8
70
1
43
0.0
10
-34.402124669875967
20
54.773335577100788
42
0.41421305117808727
10
-35.042981513606129
20
54.47449844222939
10
-39.486130993535518
20
42.267045574861797
42
0.41421305117808682
10
-39.187294977170836
20
41.626188209563502
10
-26.974401650182045
20
37.171374546541678
42
0.41421305117808815
10
-26.333545746144551
20
37.470212023433191
10
-21.88728260120002
20
49.686216691320055
42
0.41421297658962047
10
-22.186120121640947
20
50.32707247570567
0
CIRCLE
5
119
100
AcDbEntity
8
0
100
AcDbCircle
10
7.5760051583935262
20
6.4799671359521582
30
0
40
0.87500000000000355
210
0
220
0
230
1
0
CIRCLE
5
120
100
AcDbEntity
8
0
100
AcDbCircle
10
-7.6439948416064585
20
-6.220032864047802
30
0
40
0.87500000000000355
210
0
220
0
230
1
0
LWPOLYLINE
5
121
100
AcDbEntity
8
0
100
AcDbPolyline
90
8
70
1
43
0.0
10
-77.164785902543983
20
48.370913824353501
42
0.41421305117807811
10
-77.805642746274103
20
48.072076689482124
10
-82.24879222620352
20
35.864623822114595
42
0.41421305117808682
10
-81.949956209838746
20
35.223766456816215
10
-69.737062882850054
20
30.768952793794462
42
0.41421305117810608
10
-69.09620697881256
20
31.067790270686011
10
-64.649943833867965
20
43.283794938572804
42
0.41421246539484513
10
-64.948780192250908
20
43.924651364180903
0
CIRCLE
5
122
100
AcDbEntity
8
0
100
AcDbCircle
10
-11.543994841606429
20
47.06236534615492
30
0
40
1.0000000000000009
210
0
220
0
230
1
0
CIRCLE
5
123
100
AcDbEntity
8
0
100
AcDbCircle
10
-11.543994841606429
20
51.923657474183784
30
0
40
1.0000000000000009
210
0
220
0
230
1
0
LWPOLYLINE
5
124
100
AcDbEntity
8
0
100
AcDbPolyline
90
8
70
1
43
0.0
10
-92.599495203590379
20
61.516682146980614
42
0.41421305117808654
10
-93.240352047320442
20
61.217845012109244
10
-97.683501527249916
20
49.010392144741701
42
0.41421305117807528
10
-97.384665510885213
20
48.369534779443306
10
-85.171772183896408
20
43.914721116421553
42
0.4142124653948655
10
-84.530915682186304
20
44.21355731160336
10
-80.084653134914348
20
56.429563261199895
42
0.41421297658964895
10
-80.383490655355274
20
57.070419045585545
0
LWPOLYLINE
5
125
100
AcDbEntity
8
0
100
AcDbPolyline
90
8
70
1
43
0.0
10
-99.09787792677804
20
43.662522352048505
42
0.41421305117809459
10
-99.738734770508216
20
43.363685217177149
10
-104.18191845245192
20
31.156138380547521
42
0.41421356237312079
10
-103.88308127402915
20
30.515281656471522
10
-91.670154907084026
20
26.060561321489395
42
0.41421246539484241
10
-91.029298405373993
20
26.359397516671219
10
-86.583035858102022
20
38.575403466267773
42
0.41421246539487322
10
-86.881872216484979
20
39.216259891875858
0
LWPOLYLINE
5
126
100
AcDbEntity
8
0
100
AcDbPolyline
90
8
70
1
43
0.0
10
-30.438929907217059
20
10.150773354910818
42
0.41421305117806356
10
-31.079786750947285
20
9.851936220039514
10
-35.522970432890986
20
-2.3556106165901256
42
0.41421305117814766
10
-35.224134416526212
20
-2.9964679818885287
10
-23.011206887523173
20
-7.451187675648292
42
0.41421246539491013
10
-22.37035038581314
20
-7.1523514804664146
10
-17.924087838541112
20
5.0636544691301921
42
0.41421246539483325
10
-18.222924196924065
20
5.704510894738295
0
CIRCLE
5
127
100
AcDbEntity
8
0
100
AcDbCircle
10
-16.543994841606391
20
-17.366968974743777
30
0
40
1.0000000000000009
210
0
220
0
230
1
0
LWPOLYLINE
5
128
100
AcDbEntity
8
0
100
AcDbPolyline
90
8
70
1
43
0.0
10
-40.90102559991881
20
36.900209194134518
42
0.4142130511780806
10
-41.541882443648959
20
36.601372059263127
10
-45.985031923578397
20
24.393919191895556
42
0.41421356237311635
10
-45.686194745155618
20
23.753062467819568
10
-33.473302580224853
20
19.298248163575412
42
0.41421246539483564
10
-32.832446078514792
20
19.59708435875724
10
-28.386183531242864
20
31.813090308353793
42
0.41421246539486983
10
-28.685019889625771
20
32.453946733961878
0
LWPOLYLINE
5
129
100
AcDbEntity
8
0
100
AcDbPolyline
90
8
70
1
43
0.0
10
-52.489605211360171
20
6.522750960527155
10
-48.046421529416428
20
18.730297797156844
42
-0.4142130511781012
10
-47.405564685686315
20
19.029134932028207
10
-35.189559795431123
20
14.58287277032581
42
-0.41421297658961326
10
-34.890722617010368
20
13.942016046247439
10
-39.336985164282325
20
1.7260100966508656
42
-0.41421246539477602
10
-39.977841665992358
20
1.4271739014691316
10
-52.190769194995511
20
5.8818935952287976
42
-0.4142130511780725
0
LWPOLYLINE
5
130
100
AcDbEntity
8
0
100
AcDbPolyline
90
8
70
1
43
0.0
10
-57.191469299565981
20
47.694866579555359
42
0.41421305117807811
10
-57.832326143296193
20
47.396029444683982
10
-62.275475623225589
20
35.188576577316361
42
0.41421356237305496
10
-61.976638444802823
20
34.547719853240437
10
-49.763746279872095
20
30.092905548996249
42
0.41421305117811258
10
-49.12289037583453
20
30.391743025887799
10
-44.676627230889999
20
42.607747693774591
42
0.41421297658963163
10
-44.975464751330996
20
43.248603478160241
0
CIRCLE
5
131
100
AcDbEntity
8
0
100
AcDbCircle
10
-7.6439948416064585
20
-1.1400328640478108
30
0
40
0.87500000000000355
210
0
220
0
230
1
0
CIRCLE
5
132
100
AcDbEntity
8
0
100
AcDbCircle
10
7.5760051583935262
20
1.3999671359522026
30
0
40
0.87500000000000355
210
0
220
0
230
1
0
CIRCLE
5
133
100
AcDbEntity
8
0
100
AcDbCircle
10
-7.6439948416064585
20
3.9399671359521804
30
0
40
0.87500000000000355
210
0
220
0
230
1
0
CIRCLE
5
134
100
AcDbEntity
8
0
100
AcDbCircle
10
7.5760051583935262
20
11.559967135952185
30
0
40
0.87500000000000355
210
0
220
0
230
1
0
CIRCLE
5
135
100
AcDbEntity
8
0
100
AcDbCircle
10
7.5760051583935262
20
-1.1400328640478108
30
0
40
0.87500000000000355
210
0
220
0
230
1
0
CIRCLE
5
136
100
AcDbEntity
8
0
100
AcDbCircle
10
7.5760051583935262
20
3.9399671359521804
30
0
40
0.87500000000000355
210
0
220
0
230
1
0
CIRCLE
5
137
100
AcDbEntity
8
0
100
AcDbCircle
10
-7.6439948416064585
20
14.099967135952163
30
0
40
0.87500000000000355
210
0
220
0
230
1
0
CIRCLE
5
138
100
AcDbEntity
8
0
100
AcDbCircle
10
7.5760051583935262
20
-6.220032864047802
30
0
40
0.87500000000000355
210
0
220
0
230
1
0
CIRCLE
5
139
100
AcDbEntity
8
0
100
AcDbCircle
10
-7.6439948416064585
20
1.3999671359522026
30
0
40
0.87500000000000355
210
0
220
0
230
1
0
CIRCLE
5
140
100
AcDbEntity
8
0
100
AcDbCircle
10
7.5760051583935262
20
-11.300032864047829
30
0
40
0.87500000000000355
210
0
220
0
230
1
0
LWPOLYLINE
5
141
100
AcDbEntity
8
0
100
AcDbPolyline
90
56
70
1
43
0.0
10
-51.32298232567814
20
65.279768158656481
10
-67.852839169980712
20
65.279768158656481
10
-58.425087978457164
20
61.848348413051255
42
-0.41421246539486467
10
-58.126251620074221
20
61.207491987443049
10
-62.572514167346263
20
48.991486037846585
42
-0.41421246539487888
10
-63.213370669056282
20
48.692649842664757
10
-75.426263996045023
20
53.147463505686574
42
-0.41421305117807034
10
-75.725100012409726
20
53.78832087098484
10
-71.542554186880437
20
65.279768158656481
10
-89.325071961207499
20
65.279768158656481
42
0.31529878887898305
10
-94.023535065137025
20
61.989868875284827
10
-105.23748201051436
20
31.1798028598988
42
0.079557322538664321
10
-106.43370450171247
20
24.969404132956782
10
-106.23711749369578
20
25.50952542224492
42
-0.41421305117809748
10
-105.59626064996567
20
25.808362557116276
10
-93.380254939672653
20
21.362100096943671
42
-0.4142124653948509
10
-93.081418581289711
20
20.721243671335575
10
-97.527680786541637
20
8.5052386614286544
42
-0.41421305117808743
10
-98.168537630271743
20
8.2064015265573094
10
-105.67686405876415
20
10.945098086456184
42
0.16116573343919727
10
-103.25397018084431
20
8.9451153361760269
42
-0.06034104513334429
10
-47.370421976216306
20
-20.935874850495992
42
-0.061649924575527232
10
-34.13786259030087
20
-32.890435321933467
42
0.15834533239615506
10
-31.494014500495137
20
-34.488788567371309
10
-36.636175770284169
20
-28.351977760097057
42
-0.41421356237309442
10
-36.574547230311083
20
-27.647560324862212
10
-26.622863869752557
20
-19.297106487424426
42
-0.41421305117809465
10
-25.918446995457359
20
-19.358734358896719
10
-17.562206947654211
20
-29.317313456445824
42
-0.41421246539485596
10
-17.623835282524187
20
-30.021729580392424
10
-23.095061467674931
20
-34.612632149033956
42
0.16227766144284642
10
-20.154140503833201
20
-33.450313761737235
10
-10.116118744741103
20
-25.027413405933565
42
0.22169466264294199
10
-6.5439948416064775
20
-17.366968974743781
10
-6.5439948416064642
20
-12.580032864047794
10
8.8560051583935273
20
-12.580032864047794
10
8.8560051583935273
20
20.419967135952177
10
-6.5439948416064464
20
20.419967135952177
10
-6.5439948416064375
20
36.271729845300214
10
-9.3520545838554785
20
28.55664618718723
42
-0.41421305117806467
10
-9.9929114275855557
20
28.257809052315928
10
-22.205803934536441
20
32.712622416867397
42
-0.41421356237307738
10
-22.504640770939002
20
33.353480080635919
10
-18.061491291009514
20
45.560932948003526
42
-0.41421305117809715
10
-17.420634447279404
20
45.859770082874896
10
-6.5439948416064286
20
41.900995953392055
10
-6.5439948416064286
20
51.923657474183784
42
0.29521202086493759
10
-9.4934990267741171
20
56.483862175000965
42
0.10449906701548847
10
-49.89560505759308
20
65.277920974999859
10
-38.470925323543355
20
61.119678679959186
42
-0.41421297658963585
10
-38.172088145122494
20
60.478821955880861
10
-42.618350350374435
20
48.262816945973896
42
-0.41421305117810109
10
-43.259207194104519
20
47.963979811102568
10
-55.47210052109331
20
52.418793474124271
42
-0.41421305117805574
10
-55.770936537458027
20
53.059650839422623
10
-51.327787057528596
20
65.267103706790209
42
-0.0067729219773839337
0
ENDSEC
0
SECTION
2
OBJECTS
0
DICTIONARY
5
C
100
AcDbDictionary
3
ACAD_GROUP
350
D
3
ACAD_MLINESTYLE
350
17
0
DICTIONARY
5
D
100
AcDbDictionary
0
DICTIONARY
5
1A
330
C
100
AcDbDictionary
0
DICTIONARY
5
17
100
AcDbDictionary
0
ENDSEC
0
EOF
